# xmcd CD database file
#
# Track frame offsets:
#	150
#	16437
#	38275
#	55645
#	83735
#	100615
#	117972
#	137067
#	153525
#	170677
#	192830
#	259212
#
# Disc length: 3655 seconds
#
# Revision: 0
# Processed by: cddbd v1.5.1PL0 Copyright (c) Steve Scherf et al.
# Submitted via: CDex 1.51
#
DISCID=910e450c
DTITLE=増田一郎、根本慶子 - デュオロジー
DYEAR=1983
DGENRE=Jazz
TTITLE0=I Got Rhythm
TTITLE1=In A Morment Daydream
TTITLE2=I'm Begining To See The Light
TTITLE3=Odds Against Tomorrow
TTITLE4=Duology
TTITLE5=April In Paris (P.Solo)
TTITLE6=Ain't She Sweet
TTITLE7=Tenderly (V.Solo)
TTITLE8=Maple Leaf Rag
TTITLE9=Good-bye
TTITLE10=みだれ "Collaboration By Marimba and Vibraphone"
TTITLE11=Message From LOB (Interview)
EXTD=YEAR: 1983
EXTT0=
EXTT1=
EXTT2=
EXTT3=
EXTT4=
EXTT5=
EXTT6=
EXTT7=
EXTT8=
EXTT9=
EXTT10=
EXTT11=
PLAYORDER=
